HIERARCHY
ROOT root
{
	OFFSET 0.000000 0.000000 0.000000
	CHANNELS 6 Xposition Yposition Zposition Zrotation Yrotation Xrotation
	JOINT lhip
	{
		OFFSET 0.058581 -0.082280 -0.017664
		CHANNELS 3 Zrotation Yrotation Xrotation
		JOINT lknee
		{
			OFFSET 0.043451 -0.386469 0.008037
			CHANNELS 3 Zrotation Yrotation Xrotation
			JOINT lankle
			{
				OFFSET -0.014790 -0.426874 -0.037428
				CHANNELS 3 Zrotation Yrotation Xrotation
				JOINT ltoe
				{
					OFFSET 0.041054 -0.060286 0.122042
					CHANNELS 3 Zrotation Yrotation Xrotation
					End Site
					{
						OFFSET 0.000000 0.000000 0.000000
					}
				}
			}
		}
	}
	JOINT rhip
	{
		OFFSET -0.060310 -0.090513 -0.013543
		CHANNELS 3 Zrotation Yrotation Xrotation
		JOINT rknee
		{
			OFFSET -0.043257 -0.383688 -0.004843
			CHANNELS 3 Zrotation Yrotation Xrotation
			JOINT rankle
			{
				OFFSET 0.019056 -0.420046 -0.034562
				CHANNELS 3 Zrotation Yrotation Xrotation
				JOINT rtoe
				{
					OFFSET -0.034840 -0.062106 0.130323
					CHANNELS 3 Zrotation Yrotation Xrotation
					End Site
					{
						OFFSET 0.000000 0.000000 0.000000
					}
				}
			}
		}
	}
	JOINT lowerback
	{
		OFFSET 0.004439 0.124404 -0.038385
		CHANNELS 3 Zrotation Yrotation Xrotation
		JOINT upperback
		{
			OFFSET 0.004488 0.137956 0.026820
			CHANNELS 3 Zrotation Yrotation Xrotation
			JOINT chest
			{
				OFFSET -0.002265 0.056032 0.002855
				CHANNELS 3 Zrotation Yrotation Xrotation
				JOINT lowerneck
				{
					OFFSET -0.013390 0.211636 -0.033468
					CHANNELS 3 Zrotation Yrotation Xrotation
					JOINT upperneck
					{
						OFFSET 0.010113 0.088937 0.050410
						CHANNELS 3 Zrotation Yrotation Xrotation
						End Site
						{
							OFFSET 0.000000 0.000000 0.000000
						}
					}
				}
				JOINT lclavicle
				{
					OFFSET 0.071702 0.114000 -0.018898
					CHANNELS 3 Zrotation Yrotation Xrotation
					JOINT lshoulder
					{
						OFFSET 0.122921 0.045205 -0.019046
						CHANNELS 3 Zrotation Yrotation Xrotation
						JOINT lelbow
						{
							OFFSET 0.255332 -0.015649 -0.022946
							CHANNELS 3 Zrotation Yrotation Xrotation
							JOINT lwrist
							{
								OFFSET 0.265709 0.012698 -0.007375
								CHANNELS 3 Zrotation Yrotation Xrotation
								End Site
								{
									OFFSET 0.000000 0.000000 0.000000
								}
							}
						}
					}
				}
				JOINT rclavicle
				{
					OFFSET -0.082954 0.112472 -0.023707
					CHANNELS 3 Zrotation Yrotation Xrotation
					JOINT rshoulder
					{
						OFFSET -0.113228 0.046853 -0.008472
						CHANNELS 3 Zrotation Yrotation Xrotation
						JOINT relbow
						{
							OFFSET -0.260127 -0.014369 -0.031269
							CHANNELS 3 Zrotation Yrotation Xrotation
							JOINT rwrist
							{
								OFFSET -0.269108 0.006794 -0.006027
								CHANNELS 3 Zrotation Yrotation Xrotation
								End Site
								{
									OFFSET 0.000000 0.000000 0.000000
								}
							}
						}
					}
				}
			}
		}
	}
}
MOTION
Frames: 6
Frame Time: 0.033333
1.182261 1.167428 0.983570 -86.795481 1.244593 85.991985 -0.678928 -1.018923 6.507044 -2.417638 -13.685473 3.980915 5.413500 9.139944 -17.725418 0.000000 -0.000000 0.000000 3.316554 -2.305661 5.928943 4.609865 4.281489 5.969751 0.430048 -2.956218 -14.093505 0.000000 -0.000000 0.000000 -3.361648 2.616469 1.012564 2.093243 -2.341817 3.735782 1.939071 -1.174700 4.035420 4.637011 2.934391 1.030717 2.150848 -1.235423 6.313729 -24.890601 4.290184 4.131237 -64.724714 -5.483556 8.836311 12.079995 -23.550006 4.865058 -2.354875 -2.495479 -9.584540 23.710782 -2.360848 3.439806 62.452412 3.385099 10.036858 -14.698822 20.650110 -4.333251 7.894689 0.238717 -12.049698 
1.182397 1.167170 0.983415 -86.835040 1.290803 86.037190 -0.647167 -1.069907 6.457378 -2.407444 -13.736741 3.940238 5.355289 9.223527 -17.692109 0.000000 -0.000000 0.000000 3.375345 -2.158007 5.891522 4.612272 4.287231 5.939706 0.520018 -3.074039 -14.086648 0.000000 -0.000000 0.000000 -3.268384 2.575284 0.835066 2.014504 -2.260303 3.738795 1.952278 -1.188167 4.306323 4.688184 2.905252 0.883743 2.113676 -1.334183 6.451779 -24.670646 4.284844 4.110291 -65.014143 -5.580163 8.964987 12.233248 -23.383131 4.860990 -2.303512 -2.375775 -9.918703 23.544573 -2.387666 3.423829 62.734507 3.451314 10.088015 -14.833113 20.518948 -4.501564 7.920810 0.353559 -12.518954 
1.182579 1.166997 0.983442 -86.908655 1.323547 85.995444 -0.648303 -1.027509 6.452285 -2.407400 -13.814728 4.009274 5.349898 9.372545 -17.690880 0.000000 -0.000000 0.000000 3.402977 -2.135958 5.886758 4.607561 4.322182 5.992759 0.523307 -3.035600 -14.079084 0.000000 -0.000000 0.000000 -3.233797 2.584943 0.931137 2.000528 -2.234471 3.652862 1.985509 -1.195440 4.373901 4.651148 2.832777 0.998212 2.155922 -1.330542 6.451007 -24.601872 4.345813 4.077406 -65.136293 -5.558520 8.903382 12.284525 -23.238924 4.694762 -1.823136 -2.214690 -9.901025 23.463032 -2.369778 3.454589 62.782460 3.436813 10.063283 -14.781440 20.496081 -4.416321 7.790353 0.217828 -12.383232 
1.182518 1.166831 0.983409 -86.962047 1.401484 85.913280 -0.566779 -0.951408 6.592446 -2.386869 -13.791767 3.927297 5.420325 9.376398 -17.778864 0.000000 -0.000000 0.000000 3.440280 -2.229571 6.002444 4.639849 4.420226 5.934902 0.596194 -3.000213 -14.072934 0.000000 -0.000000 0.000000 -3.207384 2.574787 0.984449 2.044917 -2.272164 3.690911 2.018989 -1.208112 4.368382 4.745107 2.559004 0.803432 2.047073 -1.545378 6.580574 -24.661538 4.374837 4.088184 -65.139657 -5.550684 8.826395 12.335318 -22.997832 4.484072 -1.640030 -2.330718 -10.097625 23.466412 -2.320570 3.460451 62.805879 3.373301 10.048809 -14.806618 20.395814 -4.507195 7.683039 0.237471 -12.403997 
1.182698 1.166698 0.983449 -87.064628 1.399380 85.964625 -0.596531 -0.931458 6.549527 -2.366964 -13.814211 3.877333 5.326865 9.354955 -17.759458 0.000000 -0.000000 0.000000 3.436147 -2.209159 5.886479 4.614460 4.521606 6.013119 0.601390 -3.014445 -14.088180 0.000000 -0.000000 0.000000 -3.206026 2.571247 1.038044 2.028095 -2.260293 3.520342 2.015035 -1.224684 4.431456 4.812620 2.558908 0.227237 1.921792 -1.685350 6.807785 -24.700145 4.551170 3.905003 -65.100668 -5.521219 8.807403 12.277387 -22.774333 4.464953 -1.291512 -2.348403 -9.990728 23.495451 -2.447045 3.337349 62.769503 3.274172 10.164231 -14.767861 20.439034 -4.413648 7.511204 0.199750 -12.237934 
1.182709 1.166448 0.983416 -87.173074 1.425581 85.851483 -0.607637 -0.889669 6.680745 -2.314398 -13.629911 3.875776 5.388145 9.462083 -17.853036 0.000000 -0.000000 0.000000 3.428381 -2.202762 6.000129 4.641492 4.613004 6.034408 0.575539 -2.989233 -14.100101 0.000000 -0.000000 0.000000 -3.203521 2.599281 1.083396 2.049401 -2.277550 3.659079 1.994525 -1.255942 4.429726 4.755240 2.448813 0.331984 1.999905 -1.793185 6.848806 -24.661745 4.460632 3.941147 -65.191228 -5.499553 8.767375 12.339257 -22.720125 4.394793 -1.438131 -2.240033 -10.197175 23.465203 -2.429874 3.355329 62.790770 3.290422 10.152650 -14.791820 20.505653 -4.303668 7.555476 0.087176 -12.100793 
